<mxfile host="app.diagrams.net" modified="2021-06-10T18:48:39.269Z" agent="5.0 (X11; Linux x86_64) AppleWebKit/537.36 (KHTML, like Gecko) Chrome/91.0.4472.101 Safari/537.36" etag="2gOgOcSOZFJp-n33XaxX" version="14.7.6" type="github">
  <diagram id="RmVJ-SuFGZfL2f26XRlf" name="Page-1">
    <mxGraphModel dx="1622" dy="946" grid="1" gridSize="10" guides="1" tooltips="1" connect="1" arrows="1" fold="1" page="1" pageScale="1" pageWidth="1169" pageHeight="827" math="0" shadow="0">
      <root>
        <mxCell id="0" />
        <mxCell id="1" parent="0" />
        <mxCell id="X8yr9MjhudzqWTSels1c-34" style="edgeStyle=orthogonalEdgeStyle;rounded=0;orthogonalLoop=1;jettySize=auto;html=1;entryX=0.5;entryY=0;entryDx=0;entryDy=0;" edge="1" parent="1" target="X8yr9MjhudzqWTSels1c-27">
          <mxGeometry relative="1" as="geometry">
            <mxPoint x="908" y="425" as="sourcePoint" />
          </mxGeometry>
        </mxCell>
        <mxCell id="X8yr9MjhudzqWTSels1c-35" style="edgeStyle=orthogonalEdgeStyle;rounded=0;orthogonalLoop=1;jettySize=auto;html=1;entryX=0.5;entryY=0;entryDx=0;entryDy=0;" edge="1" parent="1" source="X8yr9MjhudzqWTSels1c-22" target="X8yr9MjhudzqWTSels1c-23">
          <mxGeometry relative="1" as="geometry" />
        </mxCell>
        <mxCell id="X8yr9MjhudzqWTSels1c-22" value="Sensors" style="ellipse;whiteSpace=wrap;html=1;" vertex="1" parent="1">
          <mxGeometry x="10" y="385" width="120" height="80" as="geometry" />
        </mxCell>
        <mxCell id="X8yr9MjhudzqWTSels1c-63" style="edgeStyle=none;rounded=0;orthogonalLoop=1;jettySize=auto;html=1;entryX=-0.006;entryY=0.38;entryDx=0;entryDy=0;entryPerimeter=0;startArrow=none;startFill=0;" edge="1" parent="1" source="X8yr9MjhudzqWTSels1c-23" target="X8yr9MjhudzqWTSels1c-42">
          <mxGeometry relative="1" as="geometry" />
        </mxCell>
        <mxCell id="X8yr9MjhudzqWTSels1c-23" value="Drivers" style="rounded=1;whiteSpace=wrap;html=1;rotation=-90;" vertex="1" parent="1">
          <mxGeometry x="70" y="405" width="190" height="40" as="geometry" />
        </mxCell>
        <mxCell id="X8yr9MjhudzqWTSels1c-26" value="Actuators" style="ellipse;whiteSpace=wrap;html=1;" vertex="1" parent="1">
          <mxGeometry x="1040" y="385" width="120" height="80" as="geometry" />
        </mxCell>
        <mxCell id="X8yr9MjhudzqWTSels1c-32" style="edgeStyle=orthogonalEdgeStyle;rounded=0;orthogonalLoop=1;jettySize=auto;html=1;" edge="1" parent="1" source="X8yr9MjhudzqWTSels1c-27" target="X8yr9MjhudzqWTSels1c-26">
          <mxGeometry relative="1" as="geometry" />
        </mxCell>
        <mxCell id="X8yr9MjhudzqWTSels1c-27" value="Low Level Controllers" style="rounded=1;whiteSpace=wrap;html=1;rotation=-90;" vertex="1" parent="1">
          <mxGeometry x="910" y="405" width="190" height="40" as="geometry" />
        </mxCell>
        <mxCell id="X8yr9MjhudzqWTSels1c-30" value="Global Timing" style="pointerEvents=1;shadow=0;dashed=0;html=1;strokeColor=none;fillColor=#505050;labelPosition=center;verticalLabelPosition=bottom;verticalAlign=top;outlineConnect=0;align=center;shape=mxgraph.office.concepts.clock;" vertex="1" parent="1">
          <mxGeometry x="37.5" y="52.5" width="45" height="45" as="geometry" />
        </mxCell>
        <mxCell id="X8yr9MjhudzqWTSels1c-31" style="edgeStyle=orthogonalEdgeStyle;rounded=0;orthogonalLoop=1;jettySize=auto;html=1;" edge="1" parent="1" source="X8yr9MjhudzqWTSels1c-30" target="X8yr9MjhudzqWTSels1c-30">
          <mxGeometry relative="1" as="geometry" />
        </mxCell>
        <mxCell id="X8yr9MjhudzqWTSels1c-37" value="NIF" style="swimlane;" vertex="1" parent="1">
          <mxGeometry x="210" y="220" width="710" height="340" as="geometry" />
        </mxCell>
        <mxCell id="X8yr9MjhudzqWTSels1c-41" value="System State Manager" style="rounded=1;whiteSpace=wrap;html=1;" vertex="1" parent="X8yr9MjhudzqWTSels1c-37">
          <mxGeometry x="40" y="35" width="600" height="40" as="geometry" />
        </mxCell>
        <mxCell id="X8yr9MjhudzqWTSels1c-56" style="edgeStyle=orthogonalEdgeStyle;rounded=0;orthogonalLoop=1;jettySize=auto;html=1;entryX=0;entryY=0.5;entryDx=0;entryDy=0;" edge="1" parent="X8yr9MjhudzqWTSels1c-37" source="X8yr9MjhudzqWTSels1c-42" target="X8yr9MjhudzqWTSels1c-38">
          <mxGeometry relative="1" as="geometry" />
        </mxCell>
        <mxCell id="X8yr9MjhudzqWTSels1c-60" value="&lt;meta charset=&quot;utf-8&quot;&gt;&lt;span style=&quot;color: rgb(0, 0, 0); font-family: helvetica; font-size: 11px; font-style: normal; font-weight: 400; letter-spacing: normal; text-align: center; text-indent: 0px; text-transform: none; word-spacing: 0px; background-color: rgb(255, 255, 255); display: inline; float: none;&quot;&gt;stattus_update&lt;/span&gt;" style="edgeStyle=none;rounded=0;orthogonalLoop=1;jettySize=auto;html=1;startArrow=classic;startFill=1;entryX=0.167;entryY=1.047;entryDx=0;entryDy=0;entryPerimeter=0;" edge="1" parent="X8yr9MjhudzqWTSels1c-37" source="X8yr9MjhudzqWTSels1c-42" target="X8yr9MjhudzqWTSels1c-41">
          <mxGeometry relative="1" as="geometry">
            <mxPoint x="180" y="79" as="targetPoint" />
          </mxGeometry>
        </mxCell>
        <mxCell id="X8yr9MjhudzqWTSels1c-42" value="Perception Layer" style="swimlane;horizontal=0;" vertex="1" parent="X8yr9MjhudzqWTSels1c-37">
          <mxGeometry x="20" y="130" width="240" height="200" as="geometry" />
        </mxCell>
        <mxCell id="X8yr9MjhudzqWTSels1c-43" value="Environmental Perception" style="rounded=1;whiteSpace=wrap;html=1;" vertex="1" parent="X8yr9MjhudzqWTSels1c-42">
          <mxGeometry x="40" y="80" width="120" height="100" as="geometry" />
        </mxCell>
        <mxCell id="X8yr9MjhudzqWTSels1c-44" value="Localization&lt;br&gt;" style="rounded=1;whiteSpace=wrap;html=1;rotation=0;" vertex="1" parent="X8yr9MjhudzqWTSels1c-42">
          <mxGeometry x="40" y="20" width="190" height="40" as="geometry" />
        </mxCell>
        <mxCell id="X8yr9MjhudzqWTSels1c-45" value="Prediction" style="rounded=1;whiteSpace=wrap;html=1;" vertex="1" parent="X8yr9MjhudzqWTSels1c-42">
          <mxGeometry x="170" y="80" width="60" height="100" as="geometry" />
        </mxCell>
        <mxCell id="X8yr9MjhudzqWTSels1c-54" style="edgeStyle=orthogonalEdgeStyle;rounded=0;orthogonalLoop=1;jettySize=auto;html=1;entryX=0;entryY=0.5;entryDx=0;entryDy=0;" edge="1" parent="X8yr9MjhudzqWTSels1c-37" source="X8yr9MjhudzqWTSels1c-38" target="X8yr9MjhudzqWTSels1c-39">
          <mxGeometry relative="1" as="geometry" />
        </mxCell>
        <mxCell id="X8yr9MjhudzqWTSels1c-58" value="status_update" style="rounded=0;orthogonalLoop=1;jettySize=auto;html=1;startArrow=classic;startFill=1;" edge="1" parent="X8yr9MjhudzqWTSels1c-37" source="X8yr9MjhudzqWTSels1c-38">
          <mxGeometry x="-0.1754" y="-9" relative="1" as="geometry">
            <mxPoint x="375" y="76" as="targetPoint" />
            <Array as="points" />
            <mxPoint as="offset" />
          </mxGeometry>
        </mxCell>
        <mxCell id="X8yr9MjhudzqWTSels1c-38" value="Planning" style="rounded=1;whiteSpace=wrap;html=1;" vertex="1" parent="X8yr9MjhudzqWTSels1c-37">
          <mxGeometry x="315" y="135" width="120" height="190" as="geometry" />
        </mxCell>
        <mxCell id="X8yr9MjhudzqWTSels1c-59" value="&lt;span style=&quot;color: rgb(0 , 0 , 0) ; font-family: &amp;#34;helvetica&amp;#34; ; font-size: 11px ; font-style: normal ; font-weight: 400 ; letter-spacing: normal ; text-align: center ; text-indent: 0px ; text-transform: none ; word-spacing: 0px ; background-color: rgb(255 , 255 , 255) ; display: inline ; float: none&quot;&gt;status_update&lt;/span&gt;" style="edgeStyle=none;rounded=0;orthogonalLoop=1;jettySize=auto;html=1;startArrow=classic;startFill=1;" edge="1" parent="X8yr9MjhudzqWTSels1c-37" source="X8yr9MjhudzqWTSels1c-39">
          <mxGeometry relative="1" as="geometry">
            <mxPoint x="560" y="80" as="targetPoint" />
          </mxGeometry>
        </mxCell>
        <mxCell id="X8yr9MjhudzqWTSels1c-62" style="edgeStyle=none;rounded=0;orthogonalLoop=1;jettySize=auto;html=1;entryX=0.671;entryY=0.964;entryDx=0;entryDy=0;entryPerimeter=0;startArrow=none;startFill=0;" edge="1" parent="X8yr9MjhudzqWTSels1c-37" source="X8yr9MjhudzqWTSels1c-39" target="X8yr9MjhudzqWTSels1c-40">
          <mxGeometry relative="1" as="geometry" />
        </mxCell>
        <mxCell id="X8yr9MjhudzqWTSels1c-39" value="Control" style="rounded=1;whiteSpace=wrap;html=1;" vertex="1" parent="X8yr9MjhudzqWTSels1c-37">
          <mxGeometry x="500" y="135" width="120" height="190" as="geometry" />
        </mxCell>
        <mxCell id="X8yr9MjhudzqWTSels1c-40" value="Vehicle Safety Layer" style="rounded=1;whiteSpace=wrap;html=1;rotation=90;" vertex="1" parent="X8yr9MjhudzqWTSels1c-37">
          <mxGeometry x="530" y="160" width="290" height="40" as="geometry" />
        </mxCell>
        <mxCell id="X8yr9MjhudzqWTSels1c-48" style="edgeStyle=orthogonalEdgeStyle;rounded=0;orthogonalLoop=1;jettySize=auto;html=1;shape=arrow;" edge="1" parent="1">
          <mxGeometry relative="1" as="geometry">
            <mxPoint x="619.41" y="150" as="sourcePoint" />
            <mxPoint x="619" y="210" as="targetPoint" />
          </mxGeometry>
        </mxCell>
        <mxCell id="X8yr9MjhudzqWTSels1c-46" value="Offline Input Data" style="swimlane;" vertex="1" parent="1">
          <mxGeometry x="385" y="10" width="470" height="130" as="geometry" />
        </mxCell>
        <mxCell id="X8yr9MjhudzqWTSels1c-24" value="Global racing lines" style="shape=cylinder3;whiteSpace=wrap;html=1;boundedLbl=1;backgroundOutline=1;size=15;" vertex="1" parent="X8yr9MjhudzqWTSels1c-46">
          <mxGeometry x="70" y="40" width="90" height="70" as="geometry" />
        </mxCell>
        <mxCell id="X8yr9MjhudzqWTSels1c-25" value="Vehicle model" style="shape=cylinder3;whiteSpace=wrap;html=1;boundedLbl=1;backgroundOutline=1;size=15;" vertex="1" parent="X8yr9MjhudzqWTSels1c-46">
          <mxGeometry x="190" y="40" width="90" height="70" as="geometry" />
        </mxCell>
        <mxCell id="X8yr9MjhudzqWTSels1c-28" value="Track data" style="shape=cylinder3;whiteSpace=wrap;html=1;boundedLbl=1;backgroundOutline=1;size=15;" vertex="1" parent="X8yr9MjhudzqWTSels1c-46">
          <mxGeometry x="310" y="40" width="90" height="70" as="geometry" />
        </mxCell>
        <mxCell id="X8yr9MjhudzqWTSels1c-49" value="Offline Output Data" style="swimlane;" vertex="1" parent="1">
          <mxGeometry x="520" y="650" width="200" height="130" as="geometry" />
        </mxCell>
        <mxCell id="X8yr9MjhudzqWTSels1c-29" value="Log and ROS2 bag" style="shape=cylinder3;whiteSpace=wrap;html=1;boundedLbl=1;backgroundOutline=1;size=15;" vertex="1" parent="X8yr9MjhudzqWTSels1c-49">
          <mxGeometry x="55" y="40" width="90" height="70" as="geometry" />
        </mxCell>
        <mxCell id="X8yr9MjhudzqWTSels1c-52" style="edgeStyle=orthogonalEdgeStyle;rounded=0;orthogonalLoop=1;jettySize=auto;html=1;shape=arrow;" edge="1" parent="1">
          <mxGeometry relative="1" as="geometry">
            <mxPoint x="619.58" y="570" as="sourcePoint" />
            <mxPoint x="619.58" y="640" as="targetPoint" />
          </mxGeometry>
        </mxCell>
      </root>
    </mxGraphModel>
  </diagram>
</mxfile>
